<!-- Generator: Adobe Illustrator 21.0.2, SVG Export Plug-In  -->
<svg version="1.1"
	 xmlns="http://www.w3.org/2000/svg" xmlns:xlink="http://www.w3.org/1999/xlink" xmlns:a="http://ns.adobe.com/AdobeSVGViewerExtensions/3.0/"
	 x="0px" y="0px" width="63px" height="30px" viewBox="0 0 63 30" style="enable-background:new 0 0 63 30;" xml:space="preserve">
<style type="text/css">
	.st0{fill:#AFCFDC;}
</style>
<defs>
</defs>
<g id="XMLID_1_">
	<path class="st0" d="M53,10h-6c-2.8,0-4,2.2-4,5s2.2,5,5,5h10c2.8,0,5,2.2,5,5c0,2.8-2.2,5-5,5H19c-2.8,0-5-2.2-5-5
		c0-2.8,2.2-5,5-5h2h6v0.1c2-0.5,4-2.5,4-4.9c0-2.4-2-4.4-4-4.9V10h-1h-1c-2.8,0-5-2.2-5-5s2.2-5,5-5h27c2.8,0,5,2.2,5,5
		S55.8,10,53,10z"/>
	<path class="st0" d="M0,25.5C0,28,2,30,4.5,30h1C8,30,10,28,10,25.5l0,0C10,23,8,21,5.5,21h-1C2,21,0,23,0,25.5L0,25.5z"/>
</g>
</svg>
